<svg xmlns="http://www.w3.org/2000/svg" xmlns:xlink="http://www.w3.org/1999/xlink"  viewBox="0 0 443 426" class="css-122y91a"><defs><path id="frame_svg__a" d="M2 1h437v424H2z"></path><mask id="frame_svg__b" maskContentUnits="userSpaceOnUse" maskUnits="objectBoundingBox" x="0" y="0" width="437" height="424" fill="#fff"><use xlink:href="#frame_svg__a"></use></mask></defs><g fill="none" fill-rule="evenodd"><use stroke="#F3ECE7" mask="url(#frame_svg__b)" stroke-width="20" stroke-dasharray="1,5" xlink:href="#frame_svg__a"></use><path fill="#FFF" d="M0 415h13v11H0z"></path><path stroke="#F3ECE7" fill="#D8D8D8" d="M11.682 417.818l-.707-.707-6.364 6.364.707.707z"></path><path fill="#FFF" d="M429 0h13v11h-13z"></path><path stroke="#F3ECE7" fill="#D8D8D8" d="M439.39 3.11l-.708-.707-7.071 7.071.707.707z"></path><path fill="#FFF" d="M430 414h13v11h-13z"></path><path stroke="#F3ECE7" fill="#D8D8D8" d="M432.964 414.964l.707-.707 6.364 6.364-.707.707z"></path><path fill="#FFF" d="M0 0h13v11H0z"></path><path stroke="#F3ECE7" fill="#D8D8D8" d="M5.508 3.742l.707-.707L12.579 9.4l-.707.707z"></path></g></svg>