<svg xmlns="http://www.w3.org/2000/svg" xmlns:xlink="http://www.w3.org/1999/xlink" viewBox="0 0 56 36"><defs><filter id="smiley_svg__a"><feColorMatrix in="SourceGraphic" values="0 0 0 0 1.000000 0 0 0 0 1.000000 0 0 0 0 1.000000 0 0 0 1.000000 0"></feColorMatrix></filter></defs><g transform="translate(-692 -18)" filter="url(#smiley_svg__a)" fill="none" fill-rule="evenodd"><g fill="#1A2F3C"><path d="M697.508 29.716c-1.533 0-2.64-.766-2.64-2.224 0-1.472 1.107-2.223 2.64-2.223 1.532 0 2.64.75 2.64 2.223 0 1.458-1.108 2.224-2.64 2.224zm0-6.716c-3.384 0-5.508 1.698-5.508 4.492 0 2.78 2.124 4.508 5.508 4.508 3.368 0 5.492-1.728 5.492-4.508 0-2.794-2.124-4.492-5.492-4.492zM707 28h26v-3h-26zM743.946 22.794c-1.618 0-2.958.625-3.727 1.732V18H737v14h3.22v-5.26c.686-1.091 1.601-1.588 2.663-1.588 1.227 0 1.897.673 1.897 1.828V32H748v-5.228c0-2.326-1.422-3.978-4.054-3.978M722 51.347c-2.651 0-4.349-1.434-4.963-3.347l-2.037.864c.63 2.838 3.363 5.136 7 5.136s6.37-2.298 7-5.136L726.963 48c-.614 1.913-2.295 3.347-4.963 3.347"></path></g></g></svg>