<svg  xmlns="http://www.w3.org/2000/svg" xmlns:xlink="http://www.w3.org/1999/xlink"  height="26" viewBox="0 0 213 26"><defs><path id="oh-white_svg__a" d="M.035.384H18.01v13.954H.035z"></path><path id="oh-white_svg__c" d="M.503.423H35.62v18.804H.503z"></path></defs><g fill="none" fill-rule="evenodd"><g transform="translate(0 6.721)"><mask id="oh-white_svg__b" fill="#fff"><use xlink:href="#oh-white_svg__a"></use></mask><path d="M9.005 12.02c-3.407 0-5.968-1.537-5.968-4.636 0-3.145 2.561-4.682 5.968-4.682C12.439 2.702 15 4.239 15 7.384c0 3.1-2.561 4.636-5.995 4.636zm0-11.636C3.407.384 0 3.08 0 7.384c0 4.281 3.407 6.954 9.005 6.954 5.625 0 9.006-2.673 9.006-6.954 0-4.304-3.38-7-9.006-7z" fill="#FFFFFE" mask="url(#oh-white_svg__b)"></path></g><path fill="#FFFFFE" d="M23.588 16.71l3.903-2.872 5.816 6.365h3.558l-7.116-7.92 6.692-5.193h-3.824l-9.03 6.916V.944h-3.106v19.259h3.107v-3.494"></path><g transform="translate(37.89 6.721)"><mask id="oh-white_svg__d" fill="#fff"><use xlink:href="#oh-white_svg__c"></use></mask><path d="M3.455 10.135c0-2.158 2.799-2.624 4.673-2.624 2.105 0 4.494.564 5.623 2.428v.417c-1.13 1.84-3.518 2.428-5.623 2.428-1.874 0-4.673-.466-4.673-2.649zM13.7 12.441v.025c0 .637.18 1.299.54 1.888h3.107c-.462-.785-.642-1.594-.642-2.6v-4.88c0-4.22-3.005-6.451-7.908-6.451-2.542 0-5.238.662-6.984 1.668L2.89 4.028c1.618-.907 3.261-1.349 5.34-1.349 3.621 0 5.47 1.3 5.47 4.194v.982C12.595 6.554 10.438 5.45 7.562 5.45c-3.03 0-7.06 1.178-7.06 4.685 0 3.532 4.03 4.71 7.06 4.71 2.876 0 5.033-1.104 6.136-2.404zM21.86 19.26h3.132L35.621.912h-3.158l-5.546 9.811-5.648-9.81h-3.235l7.343 12.557-3.517 5.788" fill="#FFFFFE" mask="url(#oh-white_svg__d)"></path></g><path d="M93.717 6.611c-2.974 0-5.364 1.15-6.639 3.015V.944h-3.107v19.259h3.107v-8.064c1.248-2.154 3.346-3.207 5.842-3.207 2.895 0 4.355 1.388 4.355 3.972v7.299h3.08v-7.49c0-3.542-2.203-6.102-6.638-6.102M117.73 15.683c-1.249 2.136-3.346 3.18-5.842 3.18-2.895 0-4.355-1.376-4.355-3.94V7.684h-3.081v7.43c0 3.512 2.204 6.052 6.639 6.052 2.974 0 5.364-1.14 6.639-2.99v2.515h3.107V7.684h-3.107v7.999M146.435 6.721c-3.035 0-5.494 1.425-6.54 3.608-.733-2.136-2.564-3.608-5.781-3.608-2.746 0-4.996 1.163-6.12 2.99V7.197h-3.061v13.007h3.06v-8.07c1.073-1.994 2.8-3.11 5.205-3.11 2.8 0 4.055 1.472 4.055 3.87v7.31h3.034l-.026-1.947v-6.028c1.073-2.065 2.851-3.204 5.258-3.204 2.799 0 4.054 1.471 4.054 3.868v7.31h3.009v-7.476c0-3.37-1.832-6.005-6.147-6.005M169.348 16.67c-1.168 1.843-3.636 2.432-5.812 2.432-1.938 0-4.83-.467-4.83-2.653 0-2.162 2.892-2.629 4.83-2.629 2.176 0 4.644.566 5.812 2.432v.418zm3.052-3.488c0-4.225-3.105-6.46-8.174-6.46-2.628 0-5.414.662-7.219 1.67l1.115 1.94c1.671-.908 3.37-1.35 5.52-1.35 3.742 0 5.653 1.302 5.653 4.2v.983c-1.142-1.303-3.371-2.408-6.343-2.408-3.132 0-7.298 1.18-7.298 4.692 0 3.538 4.166 4.717 7.298 4.717 2.972 0 5.201-1.106 6.343-2.408v.025c0 .638.185 1.302.557 1.892h3.21c-.476-.787-.662-1.597-.662-2.604v-4.89zM186.905 6.721c-2.975 0-5.364 1.14-6.64 2.99V7.197h-3.106v13.007h3.107v-8c1.248-2.135 3.346-3.18 5.842-3.18 2.895 0 4.355 1.377 4.355 3.94v7.24h3.08v-7.43c0-3.512-2.204-6.052-6.638-6.052M205.32 12.573c-2.945-.172-5.233-.416-5.233-1.787 0-1.47 2.709-1.837 4.655-1.837 2.63.025 4.55.76 5.944 1.763l1.604-1.86c-1.683-1.151-4.445-2.13-7.39-2.13-4.84 0-7.733 1.615-7.733 4.235 0 2.864 3.735 3.721 7.654 3.99 3.392.245 5.26.661 5.26 2.008 0 1.346-2.052 1.983-4.708 1.983-3.077 0-5.418-.881-7.1-2.228l-1.658 1.69c2.078 1.689 5.155 2.766 8.68 2.766 5.075 0 7.705-1.958 7.705-4.456 0-2.717-3.261-3.844-7.68-4.137" fill="#FFFFFE"></path></g></svg>